<?xml version="1.0" encoding="UTF-8"?>
<svg width="39px" height="47px" viewBox="0 0 39 47" version="1.1" xmlns="http://www.w3.org/2000/svg" xmlns:xlink="http://www.w3.org/1999/xlink">
    <title>Shape</title>
    <g id="Page-1" stroke="none" stroke-width="1" fill="none" fill-rule="evenodd">
        <path d="M25.9580477,7.513381 C27.5750769,5.4908295 28.6723841,2.7751205 28.3829802,0 C26.0158709,0.1177039 23.1272696,1.5616617 21.4549063,3.5858014 C19.953306,5.3191643 18.6242712,8.1485713 18.970743,10.807359 C21.6279429,11.037858 24.282688,9.4791927 25.9580477,7.513381 Z M28.352785,11.326499 C24.4938868,11.0966358 21.2128848,13.5166044 19.3700579,13.5166044 C17.5262221,13.5166044 14.7042626,11.4423303 11.6520794,11.49823 C7.67947369,11.5565777 3.99335129,13.8027277 1.97742349,17.3751431 C-2.10521056,24.4117905 0.790970807,34.7972859 4.72997607,40.6711578 L5.24549077,41.4251739 C7.1379975,44.1649026 9.40608384,46.9870621 12.3428212,46.8795014 C15.2807561,46.7642098 16.4323026,44.9771386 20.0034962,44.9771386 C23.5720578,44.9771386 24.6093579,46.8795014 27.7193489,46.8218728 C30.8496296,46.7659058 32.8411227,44.1045334 34.7459017,41.3125594 L34.9188538,41.0584527 C37.1651841,37.7758676 38.0847474,34.6062699 38.1425896,34.4322701 L37.7913099,34.2650518 C36.4755465,33.618137 31.9156007,31.0163826 31.8664933,24.923874 C31.8083268,18.9896565 36.7036629,16.1670133 36.934063,15.9919702 C34.1696242,11.9033518 29.8502444,11.4423304 28.352785,11.326499 Z" id="Shape" fill="#000000" fill-rule="nonzero"></path>
    </g>
</svg>