<?xml version="1.0" encoding="UTF-8"?>
<svg width="44px" height="44px" viewBox="0 0 44 44" version="1.1" xmlns="http://www.w3.org/2000/svg" xmlns:xlink="http://www.w3.org/1999/xlink">
    <title>Combined Shape</title>
    <g id="Page-1" stroke="none" stroke-width="1" fill="none" fill-rule="evenodd">
        <path d="M18.0242825,0 L26.4433184,0.00128705933 C31.5076211,0.0297229275 33.98188,0.533318488 36.5484834,1.905953 C38.9340573,3.18177193 40.8182281,5.06594265 42.094047,7.45151663 C43.4250865,9.94034417 43.9389581,12.342339 43.9948079,17.1033509 L43.9948079,17.1033509 L44,18.0242825 L44,25.9757175 C44,31.3577508 43.5082765,33.9041041 42.094047,36.5484834 C40.8182281,38.9340573 38.9340573,40.8182281 36.5484834,42.094047 C34.0596558,43.4250865 31.657661,43.9389581 26.8966491,43.9948079 L26.8966491,43.9948079 L25.9757175,44 L18.0242825,44 C12.6422492,44 10.0958959,43.5082765 7.45151663,42.094047 C5.06594265,40.8182281 3.18177193,38.9340573 1.905953,36.5484834 C0.491723503,33.9041041 0,31.3577508 0,25.9757175 L0,25.9757175 L0.00128705933,17.5566816 C0.0297229275,12.4923789 0.533318488,10.01812 1.905953,7.45151663 C3.18177193,5.06594265 5.06594265,3.18177193 7.45151663,1.905953 C10.0958959,0.491723503 12.6422492,0 18.0242825,0 L18.0242825,0 Z M25.9757175,4 L17.5976886,4.00103163 C13.1295335,4.02313463 11.263413,4.40343662 9.33791207,5.43320579 C7.64941198,6.33622552 6.33622552,7.64941198 5.43320579,9.33791207 C4.37125633,11.3235849 4,13.246108 4,18.0242825 L4,18.0242825 L4,25.9757175 C4,30.753892 4.37125633,32.6764151 5.43320579,34.6620879 C6.33622552,36.350588 7.64941198,37.6637745 9.33791207,38.5667942 C11.2032411,39.5643831 13.012843,39.9524623 17.186341,39.9958379 L17.186341,39.9958379 L18.0242825,40 L25.9757175,40 C30.753892,40 32.6764151,39.6287437 34.6620879,38.5667942 C36.350588,37.6637745 37.6637745,36.350588 38.5667942,34.6620879 C39.5643831,32.7967589 39.9524623,30.987157 39.9958379,26.813659 L39.9958379,26.813659 L40,25.9757175 L40,18.0242825 C40,13.246108 39.6287437,11.3235849 38.5667942,9.33791207 C37.6637745,7.64941198 36.350588,6.33622552 34.6620879,5.43320579 C32.6764151,4.37125633 30.753892,4 25.9757175,4 L25.9757175,4 Z M25,11 C29.418278,11 33,14.581722 33,19 C33,23.418278 29.418278,27 25,27 C20.581722,27 17,23.418278 17,19 C17,14.581722 20.581722,11 25,11 Z M25,15 C22.790861,15 21,16.790861 21,19 C21,21.209139 22.790861,23 25,23 C27.209139,23 29,21.209139 29,19 C29,16.790861 27.209139,15 25,15 Z" id="Combined-Shape" fill="#0068E9" fill-rule="nonzero"></path>
    </g>
</svg>