<?xml version="1.0" encoding="UTF-8"?>
<svg width="44px" height="44px" viewBox="0 0 44 44" version="1.1" xmlns="http://www.w3.org/2000/svg" xmlns:xlink="http://www.w3.org/1999/xlink">
    <title>Artboard</title>
    <g id="Artboard" stroke="none" stroke-width="1" fill="none" fill-rule="evenodd">
        <path d="M29.5,8 C37.5081289,8 44,14.4918711 44,22.5 C44,30.5081289 37.5081289,37 29.5,37 L29.5,37 L14.5,37 C6.49187113,37 0,30.5081289 0,22.5 C0,14.4918711 6.49187113,8 14.5,8 L14.5,8 Z M29.5,12 L14.5,12 C8.70101013,12 4,16.7010101 4,22.5 C4,28.2989899 8.70101013,33 14.5,33 L14.5,33 L29.5,33 C35.2989899,33 40,28.2989899 40,22.5 C40,16.7010101 35.2989899,12 29.5,12 L29.5,12 Z M29.5,15 C33.6421356,15 37,18.3578644 37,22.5 C37,26.6421356 33.6421356,30 29.5,30 C25.3578644,30 22,26.6421356 22,22.5 C22,18.3578644 25.3578644,15 29.5,15 Z M29.5,19 C27.5670034,19 26,20.5670034 26,22.5 C26,24.4329966 27.5670034,26 29.5,26 C31.4329966,26 33,24.4329966 33,22.5 C33,20.5670034 31.4329966,19 29.5,19 Z" id="logo" fill="#00663D" fill-rule="nonzero"></path>
    </g>
</svg>