<?xml version="1.0" encoding="UTF-8"?>
<svg width="58px" height="58px" viewBox="0 0 58 58" version="1.1" xmlns="http://www.w3.org/2000/svg" xmlns:xlink="http://www.w3.org/1999/xlink">
    <title>Artboard</title>
    <g id="Artboard" stroke="none" stroke-width="1" fill="none" fill-rule="evenodd">
        <g id="Group" transform="translate(10.000000, 1.000000)" fill-rule="nonzero">
            <path d="M19,28.5 C19,23.2532949 23.2532949,19 28.5,19 C33.7467051,19 38,23.2532949 38,28.5 C38,33.7467051 33.7467051,38 28.5,38 C23.2532949,38 19,33.7467051 19,28.5 L19,28.5 Z" id="Path" fill="#1ABCFE"></path>
            <path d="M0,47.5 C0,42.2532949 4.25329488,38 9.5,38 L19,38 L19,47.5 C19,52.7467051 14.7467051,57 9.5,57 C4.25329488,57 0,52.7467051 0,47.5 Z" id="Path" fill="#0ACF83"></path>
            <path d="M19,0 L19,19 L28.5,19 C33.7467051,19 38,14.7467051 38,9.5 C38,4.25329488 33.7467051,0 28.5,0 L19,0 Z" id="Path" fill="#FF7262"></path>
            <path d="M0,9.5 C0,14.7467051 4.25329488,19 9.5,19 L19,19 L19,0 L9.5,0 C4.25329488,0 0,4.25329488 0,9.5 Z" id="Path" fill="#F24E1E"></path>
            <path d="M0,28.5 C0,33.7467051 4.25329488,38 9.5,38 L19,38 L19,19 L9.5,19 C4.25329488,19 0,23.2532949 0,28.5 Z" id="Path" fill="#A259FF"></path>
        </g>
    </g>
</svg>