<?xml version="1.0" encoding="UTF-8"?>
<svg width="128px" height="128px" viewBox="0 0 128 128" version="1.1" xmlns="http://www.w3.org/2000/svg" xmlns:xlink="http://www.w3.org/1999/xlink">
    <title>sffonticon</title>
    <g id="sffonticon" stroke="none" stroke-width="1" fill="none" fill-rule="evenodd">
        <path d="M48.3125,41.5410156 L60.126,75.5 L108.595,75.5 L108.595703,75.28125 C108.595703,70.7284795 105.538336,68.1042022 99.8852548,68.008568 L99.5625,68.0058594 C94.4355469,68.0058594 91.1640625,69.8125 90.0410156,72.9863281 L89.9433594,73.1816406 L76.7597656,73.1816406 L76.8085938,72.7421875 C77.9316406,63.3183594 86.8183594,57.0683594 100.34375,57.0683594 C114.454575,57.0683594 122.491428,63.6684231 122.655636,74.9278775 L122.658,75.5 L128,75.5 L128,77.5 L122.658,77.5 L122.658,110.5 L128,110.5 L128,112.5 L96.2118068,112.501208 C94.9625779,112.718081 93.6505478,112.830078 92.2871094,112.830078 C90.9252454,112.830078 89.6159212,112.718108 88.3692035,112.501031 L0,112.5 L0,110.5 L7.036,110.5 L18.493,77.5 L0,77.5 L0,75.5 L19.188,75.5 L30.9785156,41.5410156 L48.3125,41.5410156 Z M52.0722656,94.9101562 L27.21875,94.9101562 L22.453,110.5 L56.837,110.5 L52.0722656,94.9101562 Z M108.595,77.5 L60.822,77.5 L72.302,110.5 L82.5757313,110.501192 C77.8274275,107.86839 74.8667414,103.144163 74.7607568,97.0560672 L74.7578125,96.6191406 C74.7578125,86.9511719 82.2285156,81.2871094 95.6074219,80.5058594 L108.595703,79.7246094 L108.595,77.5 Z M108.595703,104.871094 L107.716797,104.871094 C106.420364,107.232454 104.465356,109.143788 102.018304,110.501013 L108.595,110.5 L108.595703,104.871094 Z M108.595703,88.4648438 L97.7558594,89.1484375 C91.7720205,89.5314032 88.7918341,91.7447196 88.6772647,95.5123157 L88.6738281,95.8378906 C88.6738281,99.9394531 92.140625,102.429688 97.0722656,102.429688 C103.664062,102.429688 108.595703,98.0839844 108.595703,92.4199219 L108.595703,88.4648438 Z M46.765,77.5 L32.536,77.5 L30.5878906,83.875 L48.703125,83.875 L46.765,77.5 Z M40.109375,55.6035156 L39.2304688,55.6035156 L33.147,75.5 L46.157,75.5 L40.109375,55.6035156 Z M128,15.5 L128,17.5 L0,17.5 L0,15.5 L128,15.5 Z" id="Shape" fill="#000000" fill-rule="nonzero"></path>
    </g>
</svg>