<?xml version="1.0" encoding="UTF-8"?>
<svg width="48px" height="48px" viewBox="0 0 48 48" version="1.1" xmlns="http://www.w3.org/2000/svg" xmlns:xlink="http://www.w3.org/1999/xlink">
    <title>sync</title>
    <g id="Page-1" stroke="none" stroke-width="1" fill="none" fill-rule="evenodd">
        <g id="sync" transform="translate(0.000000, -0.000000)" fill="#00663D" fill-rule="nonzero">
            <path d="M40.5905399,6.65757793 L45.75,1.5 L46.5,2.25 L46.5,18 L30.75,18 L30,17.25 L35.2858638,11.9631944 C28.817758,5.89153669 18.6507583,6.01471792 12.3327381,12.3327381 C9.1109127,15.5545635 7.5,19.7772818 7.5,24 L0,24 L0.0028117749,23.6314835 C0.0946630883,17.6127613 2.43687158,11.6220029 7.02943725,7.02943725 C16.1839136,-2.12503905 30.8938916,-2.33807025 40.3069289,6.39034364 L40.5905399,6.65757793 Z M7.4094601,41.3424221 L2.25,46.5 L1.5,45.75 L1.5,30 L17.25,30 L18,30.75 L12.7141362,36.0368056 C19.182242,42.1084633 29.3492417,41.9852821 35.6672619,35.6672619 C38.8890873,32.4454365 40.5,28.2227182 40.5,24 L48,24 L47.9971882,24.3685165 C47.9053369,30.3872387 45.5631284,36.3779971 40.9705627,40.9705627 C31.8160864,50.125039 17.1061084,50.3380703 7.69307112,41.6096564 L7.4094601,41.3424221 Z" id="🎨Color"></path>
        </g>
    </g>
</svg>